<svg xmlns="http://www.w3.org/2000/svg" viewBox="0 0 1080 1080" width="1080" height="1080"><rect width="1080" height="1080" fill="#131514"/><line x1="869.6" y1="310.1" x2="805.3" y2="377.4" stroke="rgba(240,242,241,.16)" stroke-width="1.0"/><line x1="617.3" y1="514.2" x2="716.4" y2="512.7" stroke="rgba(240,242,241,.16)" stroke-width="1.0"/><line x1="617.3" y1="514.2" x2="672.6" y2="632.6" stroke="rgba(240,242,241,.16)" stroke-width="1.0"/><line x1="617.3" y1="514.2" x2="659.6" y2="369.2" stroke="rgba(240,242,241,.16)" stroke-width="1.0"/><line x1="565.3" y1="338.2" x2="421.6" y2="294.5" stroke="rgba(240,242,241,.16)" stroke-width="1.0"/><line x1="565.3" y1="338.2" x2="659.6" y2="369.2" stroke="rgba(240,242,241,.16)" stroke-width="1.0"/><line x1="281.3" y1="526.7" x2="152.7" y2="425.3" stroke="rgba(240,242,241,.16)" stroke-width="1.0"/><line x1="281.3" y1="526.7" x2="397.9" y2="481.8" stroke="rgba(240,242,241,.16)" stroke-width="1.0"/><line x1="281.3" y1="526.7" x2="167.0" y2="509.7" stroke="rgba(240,242,241,.16)" stroke-width="1.0"/><line x1="140.8" y1="311.5" x2="152.7" y2="425.3" stroke="rgba(240,242,241,.16)" stroke-width="1.0"/><line x1="716.4" y1="512.7" x2="777.8" y2="613.5" stroke="rgba(240,242,241,.16)" stroke-width="1.0"/><line x1="716.4" y1="512.7" x2="672.6" y2="632.6" stroke="rgba(240,242,241,.16)" stroke-width="1.0"/><line x1="716.4" y1="512.7" x2="659.6" y2="369.2" stroke="rgba(240,242,241,.16)" stroke-width="1.0"/><line x1="716.4" y1="512.7" x2="805.3" y2="377.4" stroke="rgba(240,242,241,.16)" stroke-width="1.0"/><line x1="550.6" y1="700.5" x2="672.6" y2="632.6" stroke="rgba(240,242,241,.16)" stroke-width="1.0"/><line x1="550.6" y1="700.5" x2="578.2" y2="811.2" stroke="rgba(240,242,241,.16)" stroke-width="1.0"/><line x1="421.6" y1="294.5" x2="337.1" y2="324.3" stroke="rgba(240,242,241,.16)" stroke-width="1.0"/><line x1="777.8" y1="613.5" x2="672.6" y2="632.6" stroke="rgba(240,242,241,.16)" stroke-width="1.0"/><line x1="935.4" y1="477.7" x2="805.3" y2="377.4" stroke="rgba(240,242,241,.16)" stroke-width="1.0"/><line x1="659.6" y1="369.2" x2="805.3" y2="377.4" stroke="rgba(240,242,241,.16)" stroke-width="1.0"/><line x1="152.7" y1="425.3" x2="167.0" y2="509.7" stroke="rgba(240,242,241,.16)" stroke-width="1.0"/><line x1="397.9" y1="481.8" x2="337.1" y2="324.3" stroke="rgba(240,242,241,.16)" stroke-width="1.0"/><line x1="578.2" y1="811.2" x2="697.3" y2="844.2" stroke="rgba(240,242,241,.16)" stroke-width="1.0"/><line x1="260.5" y1="845.0" x2="139.6" y2="745.7" stroke="rgba(240,242,241,.16)" stroke-width="1.0"/><circle cx="896.9" cy="829.2" r="5.0" fill="#8C9591"/><circle cx="869.6" cy="310.1" r="5.0" fill="#8C9591"/><circle cx="617.3" cy="514.2" r="5.0" fill="#8C9591"/><circle cx="565.3" cy="338.2" r="5.0" fill="#8C9591"/><circle cx="281.3" cy="526.7" r="5.0" fill="#8C9591"/><circle cx="140.8" cy="311.5" r="5.0" fill="#8C9591"/><circle cx="716.4" cy="512.7" r="5.0" fill="#8C9591"/><circle cx="550.6" cy="700.5" r="5.0" fill="#8C9591"/><circle cx="421.6" cy="294.5" r="5.0" fill="#8C9591"/><circle cx="777.8" cy="613.5" r="5.0" fill="#8C9591"/><circle cx="672.6" cy="632.6" r="5.0" fill="#8C9591"/><circle cx="935.4" cy="477.7" r="5.0" fill="#8C9591"/><circle cx="659.6" cy="369.2" r="5.0" fill="#8C9591"/><circle cx="805.3" cy="377.4" r="5.0" fill="#8C9591"/><circle cx="152.7" cy="425.3" r="5.0" fill="#8C9591"/><circle cx="397.9" cy="481.8" r="5.0" fill="#8C9591"/><circle cx="337.1" cy="324.3" r="5.0" fill="#8C9591"/><circle cx="578.2" cy="811.2" r="5.0" fill="#8C9591"/><circle cx="260.5" cy="845.0" r="5.0" fill="#8C9591"/><circle cx="167.0" cy="509.7" r="5.0" fill="#8C9591"/><circle cx="139.6" cy="745.7" r="5.0" fill="#8C9591"/><circle cx="697.3" cy="844.2" r="5.0" fill="#8C9591"/><line x1="150.0" y1="560.0" x2="930.0" y2="560.0" stroke="#D0E865" stroke-width="3.0"/><circle cx="150.0" cy="560.0" r="37.8" fill="rgba(208,232,101,.35)"/><circle cx="150.0" cy="560.0" r="9.0" fill="#D0E865"/><circle cx="930.0" cy="560.0" r="37.8" fill="rgba(208,232,101,.35)"/><circle cx="930.0" cy="560.0" r="9.0" fill="#D0E865"/><text x="72.0" y="930.0" font-family="'JetBrains Mono', monospace" font-size="22" letter-spacing=".06em" fill="#9AA5A1" text-anchor="start">иногда задача решается процессом, без AI</text><text x="72.0" y="96.0" font-family="'JetBrains Mono', monospace" font-size="22" letter-spacing=".06em" fill="#9AA5A1" text-anchor="start">честность</text><text x="72.0" y="996.0" font-family="'Manrope', sans-serif" font-size="40" letter-spacing="-.01em" fill="#F0F2F1" text-anchor="start">Где AI не нужен</text></svg>