<svg xmlns="http://www.w3.org/2000/svg" viewBox="0 0 1080 1080" width="1080" height="1080"><rect width="1080" height="1080" fill="#131514"/><rect x="170" y="230" width="740" height="660" rx="40" fill="none" stroke="#D0E865" stroke-width="2" stroke-dasharray="4 10"/><line x1="553.2" y1="719.5" x2="699.7" y2="666.2" stroke="rgba(240,242,241,.16)" stroke-width="1.6"/><line x1="553.2" y1="719.5" x2="481.0" y2="819.2" stroke="rgba(240,242,241,.16)" stroke-width="1.6"/><line x1="553.2" y1="719.5" x2="400.3" y2="709.0" stroke="rgba(240,242,241,.16)" stroke-width="1.6"/><line x1="553.2" y1="719.5" x2="573.3" y2="587.8" stroke="rgba(240,242,241,.16)" stroke-width="1.6"/><line x1="816.3" y1="450.6" x2="677.4" y2="461.1" stroke="rgba(240,242,241,.16)" stroke-width="1.6"/><line x1="699.7" y1="666.2" x2="747.8" y2="791.5" stroke="rgba(240,242,241,.16)" stroke-width="1.6"/><line x1="699.7" y1="666.2" x2="573.3" y2="587.8" stroke="rgba(240,242,241,.16)" stroke-width="1.6"/><line x1="636.8" y1="357.3" x2="541.0" y2="465.1" stroke="rgba(240,242,241,.16)" stroke-width="1.6"/><line x1="636.8" y1="357.3" x2="677.4" y2="461.1" stroke="rgba(240,242,241,.16)" stroke-width="1.6"/><line x1="256.2" y1="499.8" x2="355.6" y2="614.0" stroke="rgba(240,242,241,.16)" stroke-width="1.6"/><line x1="256.2" y1="499.8" x2="448.8" y2="542.9" stroke="rgba(240,242,241,.16)" stroke-width="1.6"/><line x1="541.0" y1="465.1" x2="573.3" y2="587.8" stroke="rgba(240,242,241,.16)" stroke-width="1.6"/><line x1="541.0" y1="465.1" x2="448.8" y2="542.9" stroke="rgba(240,242,241,.16)" stroke-width="1.6"/><line x1="541.0" y1="465.1" x2="677.4" y2="461.1" stroke="rgba(240,242,241,.16)" stroke-width="1.6"/><line x1="481.0" y1="819.2" x2="400.3" y2="709.0" stroke="rgba(240,242,241,.16)" stroke-width="1.6"/><line x1="277.3" y1="722.6" x2="400.3" y2="709.0" stroke="rgba(240,242,241,.16)" stroke-width="1.6"/><line x1="277.3" y1="722.6" x2="355.6" y2="614.0" stroke="rgba(240,242,241,.16)" stroke-width="1.6"/><line x1="400.3" y1="709.0" x2="355.6" y2="614.0" stroke="rgba(240,242,241,.16)" stroke-width="1.6"/><line x1="400.3" y1="709.0" x2="448.8" y2="542.9" stroke="rgba(240,242,241,.16)" stroke-width="1.6"/><line x1="355.6" y1="614.0" x2="448.8" y2="542.9" stroke="rgba(240,242,241,.16)" stroke-width="1.6"/><line x1="573.3" y1="587.8" x2="448.8" y2="542.9" stroke="rgba(240,242,241,.16)" stroke-width="1.6"/><line x1="573.3" y1="587.8" x2="677.4" y2="461.1" stroke="rgba(240,242,241,.16)" stroke-width="1.6"/><circle cx="553.2" cy="719.5" r="6.0" fill="#8C9591"/><circle cx="816.3" cy="450.6" r="6.0" fill="#8C9591"/><circle cx="699.7" cy="666.2" r="6.0" fill="#8C9591"/><circle cx="636.8" cy="357.3" r="6.0" fill="#8C9591"/><circle cx="256.2" cy="499.8" r="6.0" fill="#8C9591"/><circle cx="541.0" cy="465.1" r="6.0" fill="#8C9591"/><circle cx="747.8" cy="791.5" r="6.0" fill="#8C9591"/><circle cx="481.0" cy="819.2" r="6.0" fill="#8C9591"/><circle cx="277.3" cy="722.6" r="6.0" fill="#8C9591"/><circle cx="400.3" cy="709.0" r="6.0" fill="#8C9591"/><circle cx="355.6" cy="614.0" r="6.0" fill="#8C9591"/><circle cx="573.3" cy="587.8" r="6.0" fill="#8C9591"/><circle cx="448.8" cy="542.9" r="6.0" fill="#8C9591"/><circle cx="677.4" cy="461.1" r="6.0" fill="#8C9591"/><circle cx="910.0" cy="560.0" r="42.0" fill="rgba(208,232,101,.35)"/><circle cx="910.0" cy="560.0" r="10.0" fill="#D0E865"/><line x1="910.0" y1="560.0" x2="1010.0" y2="560.0" stroke="#D0E865" stroke-width="2.0" stroke-dasharray="3 6"/><circle cx="1010.0" cy="560.0" r="5.0" fill="#D0E865"/><text x="190.0" y="210.0" font-family="'JetBrains Mono', monospace" font-size="22" letter-spacing=".06em" fill="#9AA5A1" text-anchor="start">ваш контур</text><text x="1010.0" y="520.0" font-family="'JetBrains Mono', monospace" font-size="20" letter-spacing=".06em" fill="#9AA5A1" text-anchor="end">модель</text><text x="72.0" y="930.0" font-family="'JetBrains Mono', monospace" font-size="22" letter-spacing=".06em" fill="#9AA5A1" text-anchor="start">наружу уходят только разрешённые поля</text><text x="72.0" y="96.0" font-family="'JetBrains Mono', monospace" font-size="22" letter-spacing=".06em" fill="#9AA5A1" text-anchor="start">безопасность</text><text x="72.0" y="996.0" font-family="'Manrope', sans-serif" font-size="40" letter-spacing="-.01em" fill="#F0F2F1" text-anchor="start">Данные не покидают контур</text></svg>